<svg width="300" height="300" viewBox="0 0 300 300" fill="none" xmlns="http://www.w3.org/2000/svg">
<g clip-path="url(#clip0_8_3)">
<rect width="300" height="300" rx="150" fill="white"/>
<rect width="300" height="300" fill="#FFC107"/>
<rect y="150" width="25" height="25" fill="black"/>
<rect x="100" y="150" width="25" height="25" fill="black"/>
<rect x="75" y="125" width="25" height="25" fill="black"/>
<rect x="50" y="150" width="25" height="25" fill="black"/>
<rect x="25" y="125" width="25" height="25" fill="black"/>
<rect x="125" y="125" width="25" height="25" fill="black"/>
<rect x="150" y="150" width="25" height="25" fill="black"/>
<rect x="175" y="125" width="25" height="25" fill="black"/>
<rect x="200" y="150" width="25" height="25" fill="black"/>
<rect x="225" y="125" width="25" height="25" fill="black"/>
<rect x="250" y="150" width="25" height="25" fill="black"/>
<rect x="275" y="125" width="25" height="25" fill="black"/>
<path d="M123.438 91.4062C122.575 91.4062 121.875 92.1059 121.875 92.9688C121.875 94.2611 120.824 95.3125 119.531 95.3125C118.239 95.3125 117.188 94.2611 117.188 92.9688C117.188 91.6764 118.239 90.625 119.531 90.625C120.394 90.625 121.094 89.9254 121.094 89.0625C121.094 88.1996 120.394 87.5 119.531 87.5C116.516 87.5 114.062 89.9533 114.062 92.9688C114.062 95.9842 116.516 98.4375 119.531 98.4375C122.547 98.4375 125 95.9842 125 92.9688C125 92.1059 124.3 91.4062 123.438 91.4062Z" fill="black"/>
<path d="M184.375 91.4062C183.512 91.4062 182.812 92.1059 182.812 92.9688C182.812 94.2611 181.761 95.3125 180.469 95.3125C179.176 95.3125 178.125 94.2611 178.125 92.9688C178.125 91.6764 179.176 90.625 180.469 90.625C181.332 90.625 182.031 89.9254 182.031 89.0625C182.031 88.1996 181.332 87.5 180.469 87.5C177.453 87.5 175 89.9533 175 92.9688C175 95.9842 177.453 98.4375 180.469 98.4375C183.484 98.4375 185.938 95.9842 185.938 92.9688C185.938 92.1059 185.238 91.4062 184.375 91.4062Z" fill="black"/>
<path d="M184.375 76.5625H112.5C111.637 76.5625 110.938 77.2621 110.938 78.125C110.938 78.9879 111.637 79.6875 112.5 79.6875H184.375C185.238 79.6875 185.938 78.9879 185.938 78.125C185.938 77.2621 185.238 76.5625 184.375 76.5625Z" fill="black"/>
<path d="M200 81.25C200 80.9521 199.915 80.6746 199.77 80.4377C199.184 77.4574 197.464 74.9686 194.705 73.1566C191.952 71.3492 188.187 70.3125 184.375 70.3125H170.284L164.48 59.5336C163.103 56.9754 160.626 55.2508 157.812 54.8055V51.5625C157.812 48.1162 155.009 45.3125 151.562 45.3125H139.062C135.616 45.3125 132.812 48.1162 132.812 51.5625V54.6875H130.839C127.697 54.6875 124.721 56.3316 123.046 58.9852L116.347 67.3031C115.251 67.4785 114.209 67.6361 113.195 67.7893C109.384 68.3656 106.374 68.8207 104.167 69.6764C103.137 70.076 100 71.2926 100 75V87.5C100 91.8078 103.505 95.3125 107.812 95.3125C107.892 95.3125 107.969 95.3047 108.045 95.2934C109.126 100.645 113.865 104.688 119.531 104.688C125.19 104.688 129.925 100.655 131.014 95.3125H168.986C170.075 100.655 174.809 104.688 180.469 104.688C186.128 104.688 190.863 100.655 191.951 95.3125H198.438C199.3 95.3125 200 94.6129 200 93.75V82.8125C200 82.4213 199.978 82.0389 199.944 81.6611C199.979 81.5301 200 81.3926 200 81.25ZM193.75 76.5625C193.841 76.5625 193.929 76.5531 194.015 76.5383C195.072 77.4385 195.84 78.4898 196.312 79.6875H193.75C192.888 79.6875 192.188 78.9865 192.188 78.125C192.188 77.2635 192.888 76.5625 193.75 76.5625ZM166.735 70.3125H129.987C129.305 70.3125 128.699 69.957 128.366 69.3617C128.034 68.7664 128.048 68.0643 128.406 67.4834L131.062 63.1674C131.315 62.7559 131.773 62.5 132.256 62.5H162.5C162.509 62.5 162.518 62.4988 162.528 62.4986L166.735 70.3125ZM135.938 51.5625C135.938 49.8395 137.339 48.4375 139.062 48.4375H151.562C153.286 48.4375 154.688 49.8395 154.688 51.5625V54.6875H135.938V51.5625ZM103.125 75C103.987 75 104.688 75.701 104.688 76.5625C104.688 77.424 103.987 78.125 103.125 78.125V75ZM119.531 101.562C114.793 101.562 110.938 97.7074 110.938 92.9688C110.938 88.2301 114.793 84.375 119.531 84.375C124.27 84.375 128.125 88.2301 128.125 92.9688C128.125 97.7074 124.27 101.562 119.531 101.562ZM180.469 101.562C175.73 101.562 171.875 97.7074 171.875 92.9688C171.875 88.2301 175.73 84.375 180.469 84.375C185.207 84.375 189.062 88.2301 189.062 92.9688C189.062 97.7074 185.207 101.562 180.469 101.562ZM196.875 92.1875H192.159C191.755 86.0891 186.668 81.25 180.469 81.25C174.27 81.25 169.183 86.0891 168.779 92.1875H131.221C130.817 86.0891 125.73 81.25 119.531 81.25C113.332 81.25 108.244 86.0898 107.841 92.1889C107.832 92.1889 107.822 92.1875 107.812 92.1875C105.228 92.1875 103.125 90.0846 103.125 87.5V81.25C105.71 81.25 107.812 79.1471 107.812 76.5625C107.812 74.8412 106.879 73.3346 105.493 72.5195C107.17 71.9166 109.812 71.4613 113.662 70.8793C114.864 70.6975 116.108 70.5096 117.439 70.2922C117.819 70.2303 118.163 70.0299 118.404 69.7301L125.538 60.8719C125.579 60.8207 125.617 60.7668 125.652 60.7107C126.752 58.9232 128.739 57.8125 130.838 57.8125H156.366C157.897 57.8125 159.339 58.3846 160.439 59.375H132.256C130.695 59.375 129.218 60.2008 128.4 61.5297L125.744 65.8455C124.785 67.4041 124.745 69.2885 125.638 70.8861C126.531 72.4838 128.156 73.4375 129.986 73.4375H168.75C168.856 73.4375 168.959 73.4268 169.059 73.4066C169.155 73.4248 169.252 73.4375 169.351 73.4375H184.375C186.603 73.4375 188.794 73.8453 190.679 74.5877C189.69 75.4479 189.062 76.7141 189.062 78.125C189.062 80.7096 191.165 82.8125 193.75 82.8125H196.875V92.1875Z" fill="black"/>
<path d="M140.625 50C140.215 50 139.811 50.166 139.52 50.457C139.229 50.748 139.062 51.1523 139.062 51.5625C139.062 51.9727 139.229 52.377 139.52 52.668C139.811 52.9588 140.213 53.125 140.625 53.125C141.037 53.125 141.439 52.9588 141.73 52.668C142.021 52.377 142.188 51.9725 142.188 51.5625C142.188 51.1521 142.021 50.748 141.73 50.457C141.439 50.166 141.035 50 140.625 50Z" fill="black"/>
<path d="M145.312 50C144.902 50 144.498 50.166 144.207 50.457C143.916 50.748 143.75 51.1523 143.75 51.5625C143.75 51.9727 143.916 52.377 144.207 52.668C144.498 52.9588 144.9 53.125 145.312 53.125C145.725 53.125 146.127 52.9588 146.418 52.668C146.709 52.377 146.875 51.9725 146.875 51.5625C146.875 51.1521 146.709 50.748 146.418 50.457C146.127 50.166 145.723 50 145.312 50Z" fill="black"/>
<path d="M150 50C149.59 50 149.186 50.166 148.895 50.457C148.604 50.748 148.438 51.1523 148.438 51.5625C148.438 51.9727 148.604 52.377 148.895 52.668C149.186 52.9588 149.588 53.125 150 53.125C150.412 53.125 150.814 52.9588 151.105 52.668C151.396 52.377 151.562 51.9725 151.562 51.5625C151.562 51.1521 151.396 50.748 151.105 50.457C150.814 50.166 150.41 50 150 50Z" fill="black"/>
<path d="M83.2642 216V201.455H89.0028C90.1061 201.455 91.0459 201.665 91.8224 202.087C92.599 202.503 93.1908 203.083 93.598 203.827C94.0099 204.565 94.2159 205.418 94.2159 206.384C94.2159 207.349 94.0076 208.202 93.5909 208.94C93.1742 209.679 92.5705 210.254 91.7798 210.666C90.9938 211.078 90.0421 211.284 88.9247 211.284H85.267V208.82H88.4276C89.0194 208.82 89.5071 208.718 89.8906 208.514C90.2789 208.306 90.5677 208.019 90.7571 207.655C90.9512 207.286 91.0483 206.862 91.0483 206.384C91.0483 205.901 90.9512 205.479 90.7571 205.119C90.5677 204.755 90.2789 204.473 89.8906 204.274C89.5024 204.071 89.0099 203.969 88.4134 203.969H86.3395V216H83.2642ZM96.1566 216V205.091H99.0898V206.994H99.2035C99.4023 206.317 99.7362 205.806 100.205 205.46C100.674 205.11 101.213 204.935 101.824 204.935C101.976 204.935 102.139 204.944 102.314 204.963C102.489 204.982 102.643 205.008 102.776 205.041V207.726C102.634 207.683 102.437 207.645 102.186 207.612C101.935 207.579 101.706 207.562 101.498 207.562C101.052 207.562 100.655 207.66 100.304 207.854C99.9587 208.043 99.6841 208.308 99.4805 208.649C99.2816 208.99 99.1822 209.383 99.1822 209.828V216H96.1566ZM104.34 216V205.091H107.366V216H104.34ZM105.86 203.685C105.41 203.685 105.024 203.536 104.702 203.237C104.385 202.934 104.227 202.572 104.227 202.151C104.227 201.734 104.385 201.376 104.702 201.078C105.024 200.775 105.41 200.624 105.86 200.624C106.31 200.624 106.693 200.775 107.011 201.078C107.333 201.376 107.494 201.734 107.494 202.151C107.494 202.572 107.333 202.934 107.011 203.237C106.693 203.536 106.31 203.685 105.86 203.685ZM114.718 216.213C113.601 216.213 112.64 215.976 111.835 215.503C111.035 215.025 110.419 214.362 109.988 213.514C109.562 212.667 109.349 211.691 109.349 210.588C109.349 209.471 109.565 208.491 109.995 207.648C110.431 206.8 111.049 206.14 111.849 205.666C112.649 205.188 113.601 204.949 114.704 204.949C115.656 204.949 116.489 205.122 117.204 205.467C117.919 205.813 118.485 206.298 118.902 206.923C119.318 207.548 119.548 208.282 119.591 209.125H116.735C116.655 208.58 116.442 208.143 116.096 207.811C115.755 207.475 115.308 207.307 114.754 207.307C114.285 207.307 113.876 207.435 113.525 207.69C113.18 207.941 112.91 208.308 112.716 208.791C112.521 209.274 112.424 209.859 112.424 210.545C112.424 211.241 112.519 211.833 112.708 212.321C112.903 212.809 113.175 213.18 113.525 213.436C113.876 213.692 114.285 213.82 114.754 213.82C115.1 213.82 115.41 213.749 115.684 213.607C115.964 213.464 116.193 213.259 116.373 212.989C116.558 212.714 116.679 212.385 116.735 212.001H119.591C119.543 212.835 119.316 213.569 118.909 214.203C118.506 214.833 117.95 215.325 117.24 215.68C116.529 216.036 115.689 216.213 114.718 216.213ZM126.499 216.213C125.377 216.213 124.411 215.986 123.602 215.531C122.797 215.072 122.176 214.423 121.741 213.585C121.305 212.742 121.087 211.746 121.087 210.595C121.087 209.473 121.305 208.488 121.741 207.641C122.176 206.793 122.79 206.133 123.58 205.659C124.376 205.186 125.308 204.949 126.379 204.949C127.098 204.949 127.768 205.065 128.388 205.297C129.013 205.524 129.558 205.867 130.022 206.327C130.491 206.786 130.855 207.364 131.116 208.06C131.376 208.751 131.506 209.561 131.506 210.489V211.32H122.295V209.445H128.658C128.658 209.009 128.564 208.623 128.374 208.287C128.185 207.951 127.922 207.688 127.586 207.499C127.254 207.304 126.869 207.207 126.428 207.207C125.969 207.207 125.562 207.314 125.207 207.527C124.856 207.735 124.582 208.017 124.383 208.372C124.184 208.723 124.082 209.113 124.077 209.544V211.327C124.077 211.866 124.177 212.333 124.376 212.726C124.579 213.119 124.866 213.422 125.235 213.635C125.604 213.848 126.042 213.955 126.549 213.955C126.885 213.955 127.193 213.907 127.472 213.812C127.752 213.718 127.991 213.576 128.19 213.386C128.388 213.197 128.54 212.965 128.644 212.69L131.442 212.875C131.3 213.547 131.009 214.134 130.569 214.636C130.133 215.134 129.57 215.522 128.879 215.801C128.192 216.076 127.399 216.213 126.499 216.213ZM130.478 201.455H133.923L137.24 207.719H137.382L140.699 201.455H144.143L138.838 210.858V216H135.784V210.858L130.478 201.455ZM148.41 216.213C147.307 216.213 146.353 215.979 145.548 215.51C144.747 215.036 144.129 214.378 143.694 213.536C143.258 212.688 143.04 211.705 143.04 210.588C143.04 209.461 143.258 208.476 143.694 207.634C144.129 206.786 144.747 206.128 145.548 205.659C146.353 205.186 147.307 204.949 148.41 204.949C149.513 204.949 150.465 205.186 151.265 205.659C152.07 206.128 152.69 206.786 153.126 207.634C153.561 208.476 153.779 209.461 153.779 210.588C153.779 211.705 153.561 212.688 153.126 213.536C152.69 214.378 152.07 215.036 151.265 215.51C150.465 215.979 149.513 216.213 148.41 216.213ZM148.424 213.869C148.926 213.869 149.345 213.727 149.681 213.443C150.017 213.154 150.271 212.761 150.441 212.264C150.616 211.767 150.704 211.201 150.704 210.567C150.704 209.932 150.616 209.366 150.441 208.869C150.271 208.372 150.017 207.979 149.681 207.69C149.345 207.402 148.926 207.257 148.424 207.257C147.917 207.257 147.491 207.402 147.146 207.69C146.805 207.979 146.547 208.372 146.371 208.869C146.201 209.366 146.116 209.932 146.116 210.567C146.116 211.201 146.201 211.767 146.371 212.264C146.547 212.761 146.805 213.154 147.146 213.443C147.491 213.727 147.917 213.869 148.424 213.869ZM162.742 211.355V205.091H165.768V216H162.863V214.018H162.749C162.503 214.658 162.094 215.171 161.521 215.56C160.952 215.948 160.259 216.142 159.44 216.142C158.71 216.142 158.069 215.976 157.515 215.645C156.961 215.313 156.528 214.842 156.215 214.232C155.907 213.621 155.751 212.889 155.746 212.037V205.091H158.772V211.497C158.777 212.141 158.95 212.65 159.29 213.024C159.631 213.398 160.088 213.585 160.661 213.585C161.026 213.585 161.367 213.502 161.684 213.337C162.001 213.166 162.257 212.915 162.451 212.584C162.65 212.252 162.747 211.843 162.742 211.355ZM168.188 216V205.091H171.121V206.994H171.235C171.434 206.317 171.767 205.806 172.236 205.46C172.705 205.11 173.245 204.935 173.855 204.935C174.007 204.935 174.17 204.944 174.346 204.963C174.521 204.982 174.675 205.008 174.807 205.041V207.726C174.665 207.683 174.469 207.645 174.218 207.612C173.967 207.579 173.737 207.562 173.529 207.562C173.084 207.562 172.686 207.66 172.336 207.854C171.99 208.043 171.715 208.308 171.512 208.649C171.313 208.99 171.213 209.383 171.213 209.828V216H168.188ZM176.428 216V201.455H182.167C183.265 201.455 184.203 201.651 184.979 202.044C185.761 202.432 186.355 202.984 186.762 203.699C187.174 204.409 187.38 205.245 187.38 206.206C187.38 207.172 187.172 208.003 186.755 208.699C186.338 209.39 185.735 209.92 184.944 210.29C184.158 210.659 183.206 210.844 182.089 210.844H178.246V208.372H181.592C182.179 208.372 182.666 208.292 183.055 208.131C183.443 207.97 183.732 207.728 183.921 207.406C184.115 207.084 184.212 206.684 184.212 206.206C184.212 205.723 184.115 205.316 183.921 204.984C183.732 204.653 183.441 204.402 183.048 204.232C182.659 204.056 182.169 203.969 181.577 203.969H179.504V216H176.428ZM184.283 209.381L187.898 216H184.504L180.967 209.381H184.283ZM189.496 216V205.091H192.522V216H189.496ZM191.016 203.685C190.567 203.685 190.181 203.536 189.859 203.237C189.541 202.934 189.383 202.572 189.383 202.151C189.383 201.734 189.541 201.376 189.859 201.078C190.181 200.775 190.567 200.624 191.016 200.624C191.466 200.624 191.85 200.775 192.167 201.078C192.489 201.376 192.65 201.734 192.65 202.151C192.65 202.572 192.489 202.934 192.167 203.237C191.85 203.536 191.466 203.685 191.016 203.685ZM198.966 216.178C198.137 216.178 197.386 215.964 196.714 215.538C196.047 215.107 195.516 214.475 195.123 213.642C194.735 212.804 194.541 211.777 194.541 210.56C194.541 209.31 194.742 208.27 195.145 207.442C195.547 206.608 196.082 205.986 196.75 205.574C197.422 205.157 198.158 204.949 198.958 204.949C199.569 204.949 200.078 205.053 200.485 205.261C200.897 205.465 201.229 205.721 201.48 206.028C201.735 206.331 201.93 206.63 202.062 206.923H202.154V201.455H205.173V216H202.19V214.253H202.062C201.92 214.556 201.719 214.857 201.458 215.155C201.203 215.448 200.869 215.692 200.457 215.886C200.05 216.08 199.553 216.178 198.966 216.178ZM199.924 213.77C200.412 213.77 200.824 213.637 201.16 213.372C201.501 213.102 201.761 212.726 201.941 212.243C202.126 211.76 202.218 211.194 202.218 210.545C202.218 209.897 202.128 209.333 201.949 208.855C201.769 208.377 201.508 208.008 201.167 207.747C200.826 207.487 200.412 207.357 199.924 207.357C199.427 207.357 199.008 207.491 198.667 207.761C198.326 208.031 198.068 208.405 197.893 208.884C197.718 209.362 197.63 209.916 197.63 210.545C197.63 211.18 197.718 211.741 197.893 212.229C198.073 212.712 198.331 213.09 198.667 213.365C199.008 213.635 199.427 213.77 199.924 213.77ZM212.632 216.213C211.51 216.213 210.544 215.986 209.734 215.531C208.929 215.072 208.309 214.423 207.874 213.585C207.438 212.742 207.22 211.746 207.22 210.595C207.22 209.473 207.438 208.488 207.874 207.641C208.309 206.793 208.922 206.133 209.713 205.659C210.509 205.186 211.441 204.949 212.511 204.949C213.231 204.949 213.901 205.065 214.521 205.297C215.146 205.524 215.691 205.867 216.155 206.327C216.624 206.786 216.988 207.364 217.249 208.06C217.509 208.751 217.639 209.561 217.639 210.489V211.32H208.428V209.445H214.791C214.791 209.009 214.696 208.623 214.507 208.287C214.318 207.951 214.055 207.688 213.719 207.499C213.387 207.304 213.001 207.207 212.561 207.207C212.102 207.207 211.695 207.314 211.339 207.527C210.989 207.735 210.714 208.017 210.516 208.372C210.317 208.723 210.215 209.113 210.21 209.544V211.327C210.21 211.866 210.31 212.333 210.509 212.726C210.712 213.119 210.999 213.422 211.368 213.635C211.737 213.848 212.175 213.955 212.682 213.955C213.018 213.955 213.326 213.907 213.605 213.812C213.884 213.718 214.124 213.576 214.322 213.386C214.521 213.197 214.673 212.965 214.777 212.69L217.575 212.875C217.433 213.547 217.142 214.134 216.702 214.636C216.266 215.134 215.703 215.522 215.011 215.801C214.325 216.076 213.532 216.213 212.632 216.213Z" fill="black"/>
</g>
<rect x="2" y="2" width="296" height="296" rx="148" stroke="black" stroke-width="4"/>
<defs>
<clipPath id="clip0_8_3">
<rect width="300" height="300" rx="150" fill="white"/>
</clipPath>
</defs>
</svg>
